<?xml version="1.0" encoding="UTF-8"?>
<svg xmlns="http://www.w3.org/2000/svg" xmlns:xlink="http://www.w3.org/1999/xlink" width="47px" height="50px" viewBox="0 0 47 50" version="1.1">
<defs>
<linearGradient id="linear0" gradientUnits="userSpaceOnUse" x1="0.5" y1="0" x2="0.5" y2="1" gradientTransform="matrix(16.660156,0,0,32.582031,30.265625,0)">
<stop offset="0" style="stop-color:rgb(45.098039%,71.764706%,13.72549%);stop-opacity:1;"/>
<stop offset="1" style="stop-color:rgb(84.705882%,93.333333%,38.039216%);stop-opacity:1;"/>
</linearGradient>
<linearGradient id="linear1" gradientUnits="userSpaceOnUse" x1="0.848579" y1="0.26251" x2="0.135844" y2="1" gradientTransform="matrix(17.035156,0,0,23.691406,17.03125,26.214844)">
<stop offset="0" style="stop-color:rgb(59.607843%,78.823529%,91.764706%);stop-opacity:1;"/>
<stop offset="0.688649" style="stop-color:rgb(0.784314%,43.529412%,69.803922%);stop-opacity:1;"/>
<stop offset="1" style="stop-color:rgb(3.137255%,43.137255%,71.372549%);stop-opacity:1;"/>
</linearGradient>
<linearGradient id="linear2" gradientUnits="userSpaceOnUse" x1="0" y1="0.0632032" x2="0.858842" y2="0.699345" gradientTransform="matrix(28.40625,0,0,23.5,0.0703125,3.117187)">
<stop offset="0" style="stop-color:rgb(84.313725%,21.568627%,12.941176%);stop-opacity:1;"/>
<stop offset="1" style="stop-color:rgb(96.862745%,84.313725%,40.784314%);stop-opacity:1;"/>
</linearGradient>
<linearGradient id="linear3" gradientUnits="userSpaceOnUse" x1="0.309607" y1="0.309929" x2="0.867703" y2="0.817463" gradientTransform="matrix(7.871094,0,0,17.765625,26.195313,14.832031)">
<stop offset="0" style="stop-color:rgb(83.137255%,78.431373%,51.372549%);stop-opacity:1;"/>
<stop offset="1" style="stop-color:rgb(63.137255%,81.960784%,65.490196%);stop-opacity:1;"/>
</linearGradient>
</defs>
<g id="surface1">
<path style=" stroke:none;fill-rule:nonzero;fill:url(#linear0);" d="M 40.726562 0 C 44.140625 1.730469 47.074219 6.269531 46.925781 12.425781 C 46.480469 20.015625 40.945312 26.554688 34.921875 32.582031 C 34.585938 25.234375 32.976562 20.550781 30.46875 13.964844 C 28.097656 7.328125 35.027344 0.214844 40.726562 0 Z M 40.726562 0 "/>
<path style=" stroke:none;fill-rule:nonzero;fill:url(#linear1);" d="M 22.253906 32.324219 C 24.089844 30.054688 25.386719 28.039062 26.296875 26.214844 C 32.507812 29.441406 31.042969 28.839844 34.039062 32.277344 C 34.046875 32.386719 34.058594 32.492188 34.066406 32.597656 C 34.316406 37.367188 30.816406 48.394531 17.03125 49.90625 C 16.078125 42.496094 19.179688 36.175781 22.253906 32.324219 Z M 22.253906 32.324219 "/>
<path style=" stroke:none;fill-rule:nonzero;fill:url(#linear2);" d="M 0.0703125 4.605469 C 9.894531 0.746094 20.464844 4.703125 26.566406 12.945312 C 27.15625 13.742188 27.714844 14.570312 28.242188 15.425781 C 29.195312 21.472656 28.46875 24.835938 26.613281 26.617188 C 25.394531 26.003906 24.089844 25.460938 22.703125 24.960938 C 19.46875 23.792969 16.488281 23.019531 12.230469 21.765625 C 2.113281 19.023438 -0.378906 10.402344 0.0703125 4.605469 Z M 0.0703125 4.605469 "/>
<path style=" stroke:none;fill-rule:nonzero;fill:url(#linear3);" d="M 27.867188 14.832031 C 27.933594 14.929688 27.996094 15.03125 28.058594 15.128906 L 28.136719 15.253906 C 28.292969 15.503906 28.449219 15.757812 28.601562 16.015625 L 28.625 16.058594 L 28.667969 16.128906 L 28.703125 16.191406 L 28.8125 16.378906 L 28.820312 16.390625 L 28.96875 16.648438 L 28.972656 16.65625 C 29.082031 16.84375 29.1875 17.03125 29.289062 17.222656 L 29.304688 17.246094 L 29.417969 17.457031 L 29.421875 17.464844 L 29.546875 17.699219 L 29.585938 17.769531 L 29.65625 17.902344 L 29.742188 18.070312 L 29.824219 18.230469 C 29.910156 18.398438 29.992188 18.566406 30.074219 18.734375 L 30.097656 18.773438 C 30.246094 19.078125 30.390625 19.382812 30.53125 19.6875 L 30.640625 19.921875 L 30.652344 19.945312 L 30.71875 20.097656 L 30.800781 20.277344 L 30.847656 20.382812 L 30.917969 20.550781 L 30.972656 20.667969 L 31.082031 20.925781 L 31.089844 20.945312 L 31.207031 21.226562 L 31.21875 21.257812 C 31.34375 21.5625 31.464844 21.863281 31.585938 22.167969 L 31.59375 22.199219 L 31.691406 22.453125 L 31.699219 22.46875 L 31.753906 22.617188 C 31.816406 22.785156 31.878906 22.953125 31.9375 23.121094 L 31.960938 23.1875 C 32.027344 23.375 32.09375 23.5625 32.160156 23.75 L 32.179688 23.808594 C 32.238281 23.984375 32.296875 24.160156 32.355469 24.335938 L 32.382812 24.425781 L 32.390625 24.445312 L 32.480469 24.730469 L 32.484375 24.742188 L 32.566406 25.015625 L 32.652344 25.296875 L 32.652344 25.304688 L 32.746094 25.617188 L 32.789062 25.765625 C 32.835938 25.933594 32.882812 26.101562 32.929688 26.273438 L 32.960938 26.398438 L 33.027344 26.648438 L 33.03125 26.660156 C 33.113281 26.96875 33.1875 27.273438 33.261719 27.582031 L 33.265625 27.613281 L 33.273438 27.644531 C 33.367188 28.050781 33.453125 28.453125 33.535156 28.855469 L 33.542969 28.894531 C 33.664062 29.519531 33.769531 30.140625 33.855469 30.753906 L 33.859375 30.761719 C 33.886719 30.953125 33.910156 31.140625 33.933594 31.332031 L 33.945312 31.414062 L 33.976562 31.683594 L 34.003906 31.933594 L 34.011719 32.015625 L 34.03125 32.214844 L 34.039062 32.292969 L 34.042969 32.328125 L 34.066406 32.597656 C 31.898438 29.820312 29.304688 27.90625 26.195312 26.410156 C 28.703125 21.476562 28.351562 17.960938 27.867188 14.832031 "/>
</g>
</svg>
